<svg width="52" height="37" viewBox="0 0 52 37" fill="none" xmlns="http://www.w3.org/2000/svg">
<rect width="52" height="37" fill="white"/>
<path d="M36 27C36 27.5304 35.7893 28.0391 35.4142 28.4142C35.0391 28.7893 34.5304 29 34 29H18C17.4696 29 16.9609 28.7893 16.5858 28.4142C16.2107 28.0391 16 27.5304 16 27V13C16 12.4696 16.2107 11.9609 16.5858 11.5858C16.9609 11.2107 17.4696 11 18 11H23L25 14H34C34.5304 14 35.0391 14.2107 35.4142 14.5858C35.7893 14.9609 36 15.4696 36 16V27Z" stroke="black" stroke-width="2" stroke-linecap="round" stroke-linejoin="round"/>
</svg>
